<svg xmlns="http://www.w3.org/2000/svg" xmlns:xlink="http://www.w3.org/1999/xlink" width="1080" zoomAndPan="magnify" viewBox="0 0 810 809.999993" height="1080" preserveAspectRatio="xMidYMid meet" version="1.0"><defs><g/></defs><rect x="-81" width="972" fill="#ffffff" y="-80.999999" height="971.999992" fill-opacity="1"/><rect x="-81" width="972" fill="#ffffff" y="-80.999999" height="971.999992" fill-opacity="1"/><g fill="#000000" fill-opacity="1"><g transform="translate(65.223288, 437.251287)"><g><path d="M -0.890625 -52.78125 C -0.890625 -53.25 -0.738281 -53.539062 -0.4375 -53.65625 C -0.144531 -53.78125 0.03125 -53.875 0.09375 -53.9375 C 0.800781 -54.226562 1.941406 -54.726562 3.515625 -55.4375 C 5.085938 -56.15625 6.894531 -56.972656 8.9375 -57.890625 C 10.988281 -58.816406 13.050781 -59.722656 15.125 -60.609375 C 17.207031 -61.492188 19.132812 -62.21875 20.90625 -62.78125 C 22.6875 -63.351562 24.113281 -63.640625 25.1875 -63.640625 C 26.488281 -63.640625 27.257812 -63.28125 27.5 -62.5625 C 27.738281 -61.851562 27.859375 -61.050781 27.859375 -60.15625 L 27.859375 -57.5 C 28.035156 -57.082031 28.242188 -56.828125 28.484375 -56.734375 C 28.722656 -56.648438 28.988281 -56.609375 29.28125 -56.609375 C 29.757812 -56.609375 30.335938 -56.960938 31.015625 -57.671875 C 31.703125 -58.378906 32.609375 -59.191406 33.734375 -60.109375 C 34.859375 -61.035156 36.265625 -61.851562 37.953125 -62.5625 C 39.648438 -63.28125 41.742188 -63.640625 44.234375 -63.640625 C 48.617188 -63.640625 52.398438 -62.644531 55.578125 -60.65625 C 58.753906 -58.664062 61.363281 -56.035156 63.40625 -52.765625 C 65.457031 -49.503906 66.972656 -45.882812 67.953125 -41.90625 C 68.929688 -37.9375 69.421875 -33.9375 69.421875 -29.90625 C 69.421875 -24.144531 68.441406 -18.90625 66.484375 -14.1875 C 64.523438 -9.476562 61.660156 -5.710938 57.890625 -2.890625 C 54.128906 -0.078125 49.578125 1.328125 44.234375 1.328125 C 41.921875 1.328125 39.488281 0.75 36.9375 -0.40625 C 34.382812 -1.5625 31.890625 -4.035156 29.453125 -7.828125 C 29.160156 -8.304688 28.820312 -8.648438 28.4375 -8.859375 C 28.050781 -9.066406 27.859375 -8.84375 27.859375 -8.1875 L 27.859375 19.40625 C 27.859375 21.65625 27.515625 23.429688 26.828125 24.734375 C 26.148438 26.046875 24.863281 26.703125 22.96875 26.703125 L 1.15625 26.703125 C 2.34375 25.515625 3.15625 24.101562 3.59375 22.46875 C 4.039062 20.84375 4.265625 18.753906 4.265625 16.203125 L 4.265625 -44.671875 C 4.265625 -45.035156 4.234375 -45.675781 4.171875 -46.59375 C 4.117188 -47.507812 3.835938 -48.441406 3.328125 -49.390625 C 2.828125 -50.335938 1.863281 -51.050781 0.4375 -51.53125 C 0.320312 -51.59375 0.0703125 -51.679688 -0.3125 -51.796875 C -0.695312 -51.910156 -0.890625 -52.238281 -0.890625 -52.78125 Z M 27.859375 -41.203125 L 27.859375 -23.859375 C 27.859375 -22.609375 27.929688 -21.195312 28.078125 -19.625 C 28.222656 -18.050781 28.5625 -16.507812 29.09375 -15 C 29.632812 -13.488281 30.421875 -12.242188 31.453125 -11.265625 C 32.492188 -10.285156 33.90625 -9.796875 35.6875 -9.796875 C 38.175781 -9.796875 40.117188 -10.476562 41.515625 -11.84375 C 42.910156 -13.207031 43.921875 -15 44.546875 -17.21875 C 45.171875 -19.445312 45.554688 -21.894531 45.703125 -24.5625 C 45.847656 -27.226562 45.921875 -29.835938 45.921875 -32.390625 C 45.921875 -34.828125 45.769531 -37.320312 45.46875 -39.875 C 45.175781 -42.425781 44.613281 -44.796875 43.78125 -46.984375 C 42.957031 -49.179688 41.785156 -50.945312 40.265625 -52.28125 C 38.753906 -53.625 36.753906 -54.296875 34.265625 -54.296875 C 32.898438 -54.296875 31.785156 -53.832031 30.921875 -52.90625 C 30.066406 -51.988281 29.414062 -50.832031 28.96875 -49.4375 C 28.519531 -48.039062 28.222656 -46.597656 28.078125 -45.109375 C 27.929688 -43.628906 27.859375 -42.328125 27.859375 -41.203125 Z M 27.859375 -41.203125 "/></g></g></g><g fill="#000000" fill-opacity="1"><g transform="translate(136.861937, 437.251287)"><g><path d="M 0 -52.78125 C 0 -53.25 0.144531 -53.539062 0.4375 -53.65625 C 0.738281 -53.78125 0.921875 -53.875 0.984375 -53.9375 C 1.691406 -54.289062 2.800781 -54.835938 4.3125 -55.578125 C 5.832031 -56.316406 7.554688 -57.144531 9.484375 -58.0625 C 11.410156 -58.988281 13.378906 -59.863281 15.390625 -60.6875 C 17.410156 -61.519531 19.28125 -62.21875 21 -62.78125 C 22.71875 -63.351562 24.113281 -63.640625 25.1875 -63.640625 C 26.488281 -63.640625 27.257812 -63.28125 27.5 -62.5625 C 27.738281 -61.851562 27.859375 -61.050781 27.859375 -60.15625 L 27.859375 -10.5 C 27.859375 -7.945312 28.078125 -5.851562 28.515625 -4.21875 C 28.960938 -2.59375 29.78125 -1.1875 30.96875 0 L 1.15625 0 C 2.34375 -1.1875 3.15625 -2.59375 3.59375 -4.21875 C 4.039062 -5.851562 4.265625 -7.945312 4.265625 -10.5 L 4.265625 -44.671875 C 4.265625 -45.035156 4.25 -45.691406 4.21875 -46.640625 C 4.195312 -47.585938 3.992188 -48.550781 3.609375 -49.53125 C 3.222656 -50.507812 2.460938 -51.175781 1.328125 -51.53125 C 1.210938 -51.59375 0.960938 -51.679688 0.578125 -51.796875 C 0.191406 -51.910156 0 -52.238281 0 -52.78125 Z M 15.84375 -94.25 C 19.757812 -94.25 22.90625 -93.0625 25.28125 -90.6875 C 27.65625 -88.3125 28.84375 -85.164062 28.84375 -81.25 C 28.84375 -77.34375 27.65625 -74.203125 25.28125 -71.828125 C 22.90625 -69.453125 19.757812 -68.265625 15.84375 -68.265625 C 11.925781 -68.265625 8.78125 -69.453125 6.40625 -71.828125 C 4.03125 -74.203125 2.84375 -77.34375 2.84375 -81.25 C 2.84375 -85.164062 4.03125 -88.3125 6.40625 -90.6875 C 8.78125 -93.0625 11.925781 -94.25 15.84375 -94.25 Z M 15.84375 -94.25 "/></g></g></g><g fill="#000000" fill-opacity="1"><g transform="translate(168.276151, 437.251287)"><g><path d="M 30.703125 0 L 0.890625 0 C 2.078125 -1.1875 2.890625 -2.59375 3.328125 -4.21875 C 3.773438 -5.851562 4 -7.945312 4 -10.5 L 4 -51.796875 C 4 -54.347656 3.773438 -56.4375 3.328125 -58.0625 C 2.890625 -59.695312 2.078125 -61.109375 0.890625 -62.296875 L 22.6875 -62.296875 C 24.59375 -62.296875 25.882812 -61.628906 26.5625 -60.296875 C 27.25 -58.960938 27.59375 -57.164062 27.59375 -54.90625 L 27.59375 -53.40625 C 27.59375 -52.332031 27.648438 -51.707031 27.765625 -51.53125 C 27.890625 -51.351562 28.039062 -51.265625 28.21875 -51.265625 C 28.925781 -51.265625 29.617188 -51.675781 30.296875 -52.5 C 30.984375 -53.332031 31.785156 -54.375 32.703125 -55.625 C 33.628906 -56.875 34.757812 -58.101562 36.09375 -59.3125 C 37.425781 -60.53125 39.113281 -61.554688 41.15625 -62.390625 C 43.207031 -63.222656 45.742188 -63.640625 48.765625 -63.640625 C 52.035156 -63.640625 54.660156 -63 56.640625 -61.71875 C 58.628906 -60.445312 60.15625 -58.753906 61.21875 -56.640625 C 62.289062 -54.535156 63.019531 -52.265625 63.40625 -49.828125 C 63.789062 -47.398438 63.984375 -45.03125 63.984375 -42.71875 L 64.078125 -25.71875 L 64.078125 -10.5 C 64.078125 -7.945312 64.300781 -5.851562 64.75 -4.21875 C 65.195312 -2.59375 66.007812 -1.1875 67.1875 0 L 37.375 0 C 38.5625 -1.1875 39.378906 -2.59375 39.828125 -4.21875 C 40.273438 -5.851562 40.5 -7.945312 40.5 -10.5 L 40.5 -39.421875 C 40.5 -41.503906 40.140625 -43.34375 39.421875 -44.9375 C 38.710938 -46.539062 37.378906 -47.34375 35.421875 -47.34375 C 34.054688 -47.34375 32.78125 -46.972656 31.59375 -46.234375 C 30.40625 -45.492188 29.441406 -44.21875 28.703125 -42.40625 C 27.960938 -40.59375 27.59375 -38.023438 27.59375 -34.703125 L 27.59375 -10.5 C 27.59375 -7.945312 27.8125 -5.851562 28.25 -4.21875 C 28.695312 -2.59375 29.515625 -1.1875 30.703125 0 Z M 30.703125 0 "/></g></g></g><g fill="#000000" fill-opacity="1"><g transform="translate(235.910157, 437.251287)"><g><path d="M 0.4375 -78.234375 C 0.320312 -78.285156 0.0703125 -78.367188 -0.3125 -78.484375 C -0.695312 -78.609375 -0.890625 -78.941406 -0.890625 -79.484375 C -0.890625 -79.953125 -0.738281 -80.242188 -0.4375 -80.359375 C -0.144531 -80.484375 0.03125 -80.578125 0.09375 -80.640625 C 0.800781 -80.929688 1.941406 -81.445312 3.515625 -82.1875 C 5.085938 -82.925781 6.894531 -83.753906 8.9375 -84.671875 C 10.988281 -85.597656 13.050781 -86.488281 15.125 -87.34375 C 17.207031 -88.207031 19.132812 -88.921875 20.90625 -89.484375 C 22.6875 -90.046875 24.113281 -90.328125 25.1875 -90.328125 C 26.488281 -90.328125 27.257812 -89.972656 27.5 -89.265625 C 27.738281 -88.554688 27.859375 -87.753906 27.859375 -86.859375 L 27.859375 -47.609375 C 30.234375 -52.359375 33.71875 -56.21875 38.3125 -59.1875 C 42.914062 -62.15625 48.179688 -63.640625 54.109375 -63.640625 C 55.535156 -63.640625 57.019531 -63.488281 58.5625 -63.1875 C 60.101562 -62.894531 61.40625 -62.453125 62.46875 -61.859375 C 63.539062 -61.265625 64.078125 -60.519531 64.078125 -59.625 L 64.078125 -44.671875 C 64.078125 -43.546875 63.851562 -42.566406 63.40625 -41.734375 C 62.96875 -40.910156 62.179688 -40.5 61.046875 -40.5 C 59.503906 -40.5 58.09375 -40.765625 56.8125 -41.296875 C 55.539062 -41.828125 54.191406 -42.445312 52.765625 -43.15625 C 51.347656 -43.875 49.660156 -44.5 47.703125 -45.03125 C 45.742188 -45.5625 43.253906 -45.828125 40.234375 -45.828125 C 35.835938 -45.828125 32.644531 -44.921875 30.65625 -43.109375 C 28.664062 -41.304688 27.671875 -39.1875 27.671875 -36.75 C 27.671875 -34.320312 28.515625 -31.890625 30.203125 -29.453125 C 31.898438 -27.023438 34.289062 -25.023438 37.375 -23.453125 C 40.46875 -21.878906 44.0625 -21.09375 48.15625 -21.09375 C 51.175781 -21.09375 53.53125 -21.375 55.21875 -21.9375 C 56.914062 -22.5 58.3125 -23.0625 59.40625 -23.625 C 60.5 -24.1875 61.582031 -24.46875 62.65625 -24.46875 C 63.78125 -24.46875 64.382812 -23.875 64.46875 -22.6875 C 64.5625 -21.507812 64.609375 -20.238281 64.609375 -18.875 L 64.609375 -1.6875 C 64.609375 -0.675781 64.207031 0.03125 63.40625 0.4375 C 62.613281 0.851562 61.648438 1.101562 60.515625 1.1875 C 59.390625 1.28125 58.320312 1.328125 57.3125 1.328125 C 53.164062 1.328125 49.160156 0.378906 45.296875 -1.515625 C 41.441406 -3.410156 38.015625 -6.003906 35.015625 -9.296875 C 32.023438 -12.585938 29.640625 -16.253906 27.859375 -20.296875 L 27.859375 -10.5 C 27.859375 -7.945312 28.078125 -5.851562 28.515625 -4.21875 C 28.960938 -2.59375 29.78125 -1.1875 30.96875 0 L 1.15625 0 C 2.34375 -1.1875 3.15625 -2.59375 3.59375 -4.21875 C 4.039062 -5.851562 4.265625 -7.945312 4.265625 -10.5 L 4.265625 -71.375 C 4.265625 -71.726562 4.25 -72.378906 4.21875 -73.328125 C 4.195312 -74.285156 3.914062 -75.253906 3.375 -76.234375 C 2.84375 -77.210938 1.863281 -77.878906 0.4375 -78.234375 Z M 0.4375 -78.234375 "/></g></g></g><g fill="#000000" fill-opacity="1"><g transform="translate(302.29828, 437.251287)"><g/></g></g><g fill="#000000" fill-opacity="1"><g transform="translate(333.445526, 437.251287)"><g><path d="M -0.890625 -52.78125 C -0.890625 -53.25 -0.738281 -53.539062 -0.4375 -53.65625 C -0.144531 -53.78125 0.03125 -53.875 0.09375 -53.9375 C 0.800781 -54.226562 1.941406 -54.726562 3.515625 -55.4375 C 5.085938 -56.15625 6.894531 -56.972656 8.9375 -57.890625 C 10.988281 -58.816406 13.050781 -59.722656 15.125 -60.609375 C 17.207031 -61.492188 19.132812 -62.21875 20.90625 -62.78125 C 22.6875 -63.351562 24.113281 -63.640625 25.1875 -63.640625 C 26.488281 -63.640625 27.257812 -63.28125 27.5 -62.5625 C 27.738281 -61.851562 27.859375 -61.050781 27.859375 -60.15625 L 27.859375 -57.5 C 28.035156 -57.082031 28.242188 -56.828125 28.484375 -56.734375 C 28.722656 -56.648438 28.988281 -56.609375 29.28125 -56.609375 C 29.757812 -56.609375 30.335938 -56.960938 31.015625 -57.671875 C 31.703125 -58.378906 32.609375 -59.191406 33.734375 -60.109375 C 34.859375 -61.035156 36.265625 -61.851562 37.953125 -62.5625 C 39.648438 -63.28125 41.742188 -63.640625 44.234375 -63.640625 C 48.617188 -63.640625 52.398438 -62.644531 55.578125 -60.65625 C 58.753906 -58.664062 61.363281 -56.035156 63.40625 -52.765625 C 65.457031 -49.503906 66.972656 -45.882812 67.953125 -41.90625 C 68.929688 -37.9375 69.421875 -33.9375 69.421875 -29.90625 C 69.421875 -24.144531 68.441406 -18.90625 66.484375 -14.1875 C 64.523438 -9.476562 61.660156 -5.710938 57.890625 -2.890625 C 54.128906 -0.078125 49.578125 1.328125 44.234375 1.328125 C 41.921875 1.328125 39.488281 0.75 36.9375 -0.40625 C 34.382812 -1.5625 31.890625 -4.035156 29.453125 -7.828125 C 29.160156 -8.304688 28.820312 -8.648438 28.4375 -8.859375 C 28.050781 -9.066406 27.859375 -8.84375 27.859375 -8.1875 L 27.859375 19.40625 C 27.859375 21.65625 27.515625 23.429688 26.828125 24.734375 C 26.148438 26.046875 24.863281 26.703125 22.96875 26.703125 L 1.15625 26.703125 C 2.34375 25.515625 3.15625 24.101562 3.59375 22.46875 C 4.039062 20.84375 4.265625 18.753906 4.265625 16.203125 L 4.265625 -44.671875 C 4.265625 -45.035156 4.234375 -45.675781 4.171875 -46.59375 C 4.117188 -47.507812 3.835938 -48.441406 3.328125 -49.390625 C 2.828125 -50.335938 1.863281 -51.050781 0.4375 -51.53125 C 0.320312 -51.59375 0.0703125 -51.679688 -0.3125 -51.796875 C -0.695312 -51.910156 -0.890625 -52.238281 -0.890625 -52.78125 Z M 27.859375 -41.203125 L 27.859375 -23.859375 C 27.859375 -22.609375 27.929688 -21.195312 28.078125 -19.625 C 28.222656 -18.050781 28.5625 -16.507812 29.09375 -15 C 29.632812 -13.488281 30.421875 -12.242188 31.453125 -11.265625 C 32.492188 -10.285156 33.90625 -9.796875 35.6875 -9.796875 C 38.175781 -9.796875 40.117188 -10.476562 41.515625 -11.84375 C 42.910156 -13.207031 43.921875 -15 44.546875 -17.21875 C 45.171875 -19.445312 45.554688 -21.894531 45.703125 -24.5625 C 45.847656 -27.226562 45.921875 -29.835938 45.921875 -32.390625 C 45.921875 -34.828125 45.769531 -37.320312 45.46875 -39.875 C 45.175781 -42.425781 44.613281 -44.796875 43.78125 -46.984375 C 42.957031 -49.179688 41.785156 -50.945312 40.265625 -52.28125 C 38.753906 -53.625 36.753906 -54.296875 34.265625 -54.296875 C 32.898438 -54.296875 31.785156 -53.832031 30.921875 -52.90625 C 30.066406 -51.988281 29.414062 -50.832031 28.96875 -49.4375 C 28.519531 -48.039062 28.222656 -46.597656 28.078125 -45.109375 C 27.929688 -43.628906 27.859375 -42.328125 27.859375 -41.203125 Z M 27.859375 -41.203125 "/></g></g></g><g fill="#000000" fill-opacity="1"><g transform="translate(405.084187, 437.251287)"><g><path d="M 2.21875 -13.890625 C 2.21875 -18.628906 3.164062 -22.789062 5.0625 -26.375 C 6.96875 -29.96875 9.535156 -33.054688 12.765625 -35.640625 C 16.003906 -38.222656 19.625 -40.34375 23.625 -42 C 27.632812 -43.664062 31.710938 -44.941406 35.859375 -45.828125 C 37.171875 -46.128906 38.035156 -46.664062 38.453125 -47.4375 C 38.867188 -48.207031 39.078125 -48.976562 39.078125 -49.75 C 39.078125 -51.050781 38.878906 -52.398438 38.484375 -53.796875 C 38.097656 -55.191406 37.359375 -56.378906 36.265625 -57.359375 C 35.171875 -58.335938 33.523438 -58.796875 31.328125 -58.734375 C 29.078125 -58.679688 27.03125 -58.03125 25.1875 -56.78125 C 23.34375 -55.53125 21.664062 -54 20.15625 -52.1875 C 18.644531 -50.382812 17.234375 -48.578125 15.921875 -46.765625 C 14.617188 -44.960938 13.390625 -43.453125 12.234375 -42.234375 C 11.078125 -41.015625 9.9375 -40.40625 8.8125 -40.40625 C 8.101562 -40.40625 7.460938 -40.6875 6.890625 -41.25 C 6.328125 -41.8125 6.046875 -42.476562 6.046875 -43.25 L 6.046875 -48.15625 C 6.046875 -49.695312 6.0625 -51.207031 6.09375 -52.6875 C 6.125 -54.164062 6.703125 -55.441406 7.828125 -56.515625 C 10.859375 -59.421875 14.582031 -61.332031 19 -62.25 C 23.414062 -63.175781 27.96875 -63.640625 32.65625 -63.640625 C 37.757812 -63.640625 42.207031 -62.851562 46 -61.28125 C 49.800781 -59.707031 52.929688 -57.628906 55.390625 -55.046875 C 57.859375 -52.460938 59.703125 -49.597656 60.921875 -46.453125 C 62.140625 -43.304688 62.75 -40.132812 62.75 -36.9375 L 62.75 -10.5 C 62.75 -7.945312 62.96875 -5.851562 63.40625 -4.21875 C 63.851562 -2.59375 64.671875 -1.1875 65.859375 0 L 44.0625 0 C 41.445312 0 39.898438 -1.273438 39.421875 -3.828125 C 39.304688 -4.597656 39.054688 -5.304688 38.671875 -5.953125 C 38.285156 -6.609375 37.765625 -6.9375 37.109375 -6.9375 C 36.160156 -6.9375 35.226562 -6.519531 34.3125 -5.6875 C 33.394531 -4.863281 32.28125 -3.898438 30.96875 -2.796875 C 29.664062 -1.703125 27.988281 -0.742188 25.9375 0.078125 C 23.894531 0.910156 21.269531 1.328125 18.0625 1.328125 C 15.21875 1.328125 12.59375 0.644531 10.1875 -0.71875 C 7.789062 -2.082031 5.863281 -3.90625 4.40625 -6.1875 C 2.945312 -8.46875 2.21875 -11.035156 2.21875 -13.890625 Z M 35.859375 -40.046875 C 33.960938 -40.046875 32.050781 -39.316406 30.125 -37.859375 C 28.195312 -36.410156 26.609375 -34.363281 25.359375 -31.71875 C 24.117188 -29.082031 23.5 -25.925781 23.5 -22.25 C 23.5 -20.175781 23.75 -18.203125 24.25 -16.328125 C 24.757812 -14.460938 25.617188 -12.9375 26.828125 -11.75 C 28.046875 -10.5625 29.753906 -9.96875 31.953125 -9.96875 C 34.378906 -9.96875 36.1875 -10.929688 37.375 -12.859375 C 38.5625 -14.785156 39.15625 -17.203125 39.15625 -20.109375 C 39.15625 -22.898438 39.140625 -25.316406 39.109375 -27.359375 C 39.085938 -29.410156 39.078125 -31.800781 39.078125 -34.53125 C 39.078125 -36.550781 38.835938 -37.972656 38.359375 -38.796875 C 37.878906 -39.628906 37.046875 -40.046875 35.859375 -40.046875 Z M 35.859375 -40.046875 "/></g></g></g><g fill="#000000" fill-opacity="1"><g transform="translate(471.383286, 437.251287)"><g><path d="M -0.890625 -52.78125 C -0.890625 -53.25 -0.738281 -53.539062 -0.4375 -53.65625 C -0.144531 -53.78125 0.03125 -53.875 0.09375 -53.9375 C 0.800781 -54.226562 1.941406 -54.726562 3.515625 -55.4375 C 5.085938 -56.15625 6.894531 -56.972656 8.9375 -57.890625 C 10.988281 -58.816406 13.050781 -59.722656 15.125 -60.609375 C 17.207031 -61.492188 19.132812 -62.21875 20.90625 -62.78125 C 22.6875 -63.351562 24.113281 -63.640625 25.1875 -63.640625 C 26.488281 -63.640625 27.257812 -63.28125 27.5 -62.5625 C 27.738281 -61.851562 27.859375 -61.050781 27.859375 -60.15625 L 27.859375 -57.5 C 28.035156 -57.082031 28.242188 -56.828125 28.484375 -56.734375 C 28.722656 -56.648438 28.988281 -56.609375 29.28125 -56.609375 C 29.757812 -56.609375 30.335938 -56.960938 31.015625 -57.671875 C 31.703125 -58.378906 32.609375 -59.191406 33.734375 -60.109375 C 34.859375 -61.035156 36.265625 -61.851562 37.953125 -62.5625 C 39.648438 -63.28125 41.742188 -63.640625 44.234375 -63.640625 C 48.617188 -63.640625 52.398438 -62.644531 55.578125 -60.65625 C 58.753906 -58.664062 61.363281 -56.035156 63.40625 -52.765625 C 65.457031 -49.503906 66.972656 -45.882812 67.953125 -41.90625 C 68.929688 -37.9375 69.421875 -33.9375 69.421875 -29.90625 C 69.421875 -24.144531 68.441406 -18.90625 66.484375 -14.1875 C 64.523438 -9.476562 61.660156 -5.710938 57.890625 -2.890625 C 54.128906 -0.078125 49.578125 1.328125 44.234375 1.328125 C 41.921875 1.328125 39.488281 0.75 36.9375 -0.40625 C 34.382812 -1.5625 31.890625 -4.035156 29.453125 -7.828125 C 29.160156 -8.304688 28.820312 -8.648438 28.4375 -8.859375 C 28.050781 -9.066406 27.859375 -8.84375 27.859375 -8.1875 L 27.859375 19.40625 C 27.859375 21.65625 27.515625 23.429688 26.828125 24.734375 C 26.148438 26.046875 24.863281 26.703125 22.96875 26.703125 L 1.15625 26.703125 C 2.34375 25.515625 3.15625 24.101562 3.59375 22.46875 C 4.039062 20.84375 4.265625 18.753906 4.265625 16.203125 L 4.265625 -44.671875 C 4.265625 -45.035156 4.234375 -45.675781 4.171875 -46.59375 C 4.117188 -47.507812 3.835938 -48.441406 3.328125 -49.390625 C 2.828125 -50.335938 1.863281 -51.050781 0.4375 -51.53125 C 0.320312 -51.59375 0.0703125 -51.679688 -0.3125 -51.796875 C -0.695312 -51.910156 -0.890625 -52.238281 -0.890625 -52.78125 Z M 27.859375 -41.203125 L 27.859375 -23.859375 C 27.859375 -22.609375 27.929688 -21.195312 28.078125 -19.625 C 28.222656 -18.050781 28.5625 -16.507812 29.09375 -15 C 29.632812 -13.488281 30.421875 -12.242188 31.453125 -11.265625 C 32.492188 -10.285156 33.90625 -9.796875 35.6875 -9.796875 C 38.175781 -9.796875 40.117188 -10.476562 41.515625 -11.84375 C 42.910156 -13.207031 43.921875 -15 44.546875 -17.21875 C 45.171875 -19.445312 45.554688 -21.894531 45.703125 -24.5625 C 45.847656 -27.226562 45.921875 -29.835938 45.921875 -32.390625 C 45.921875 -34.828125 45.769531 -37.320312 45.46875 -39.875 C 45.175781 -42.425781 44.613281 -44.796875 43.78125 -46.984375 C 42.957031 -49.179688 41.785156 -50.945312 40.265625 -52.28125 C 38.753906 -53.625 36.753906 -54.296875 34.265625 -54.296875 C 32.898438 -54.296875 31.785156 -53.832031 30.921875 -52.90625 C 30.066406 -51.988281 29.414062 -50.832031 28.96875 -49.4375 C 28.519531 -48.039062 28.222656 -46.597656 28.078125 -45.109375 C 27.929688 -43.628906 27.859375 -42.328125 27.859375 -41.203125 Z M 27.859375 -41.203125 "/></g></g></g><g fill="#000000" fill-opacity="1"><g transform="translate(543.02197, 437.251287)"><g><path d="M 2.21875 -13.890625 C 2.21875 -18.628906 3.164062 -22.789062 5.0625 -26.375 C 6.96875 -29.96875 9.535156 -33.054688 12.765625 -35.640625 C 16.003906 -38.222656 19.625 -40.34375 23.625 -42 C 27.632812 -43.664062 31.710938 -44.941406 35.859375 -45.828125 C 37.171875 -46.128906 38.035156 -46.664062 38.453125 -47.4375 C 38.867188 -48.207031 39.078125 -48.976562 39.078125 -49.75 C 39.078125 -51.050781 38.878906 -52.398438 38.484375 -53.796875 C 38.097656 -55.191406 37.359375 -56.378906 36.265625 -57.359375 C 35.171875 -58.335938 33.523438 -58.796875 31.328125 -58.734375 C 29.078125 -58.679688 27.03125 -58.03125 25.1875 -56.78125 C 23.34375 -55.53125 21.664062 -54 20.15625 -52.1875 C 18.644531 -50.382812 17.234375 -48.578125 15.921875 -46.765625 C 14.617188 -44.960938 13.390625 -43.453125 12.234375 -42.234375 C 11.078125 -41.015625 9.9375 -40.40625 8.8125 -40.40625 C 8.101562 -40.40625 7.460938 -40.6875 6.890625 -41.25 C 6.328125 -41.8125 6.046875 -42.476562 6.046875 -43.25 L 6.046875 -48.15625 C 6.046875 -49.695312 6.0625 -51.207031 6.09375 -52.6875 C 6.125 -54.164062 6.703125 -55.441406 7.828125 -56.515625 C 10.859375 -59.421875 14.582031 -61.332031 19 -62.25 C 23.414062 -63.175781 27.96875 -63.640625 32.65625 -63.640625 C 37.757812 -63.640625 42.207031 -62.851562 46 -61.28125 C 49.800781 -59.707031 52.929688 -57.628906 55.390625 -55.046875 C 57.859375 -52.460938 59.703125 -49.597656 60.921875 -46.453125 C 62.140625 -43.304688 62.75 -40.132812 62.75 -36.9375 L 62.75 -10.5 C 62.75 -7.945312 62.96875 -5.851562 63.40625 -4.21875 C 63.851562 -2.59375 64.671875 -1.1875 65.859375 0 L 44.0625 0 C 41.445312 0 39.898438 -1.273438 39.421875 -3.828125 C 39.304688 -4.597656 39.054688 -5.304688 38.671875 -5.953125 C 38.285156 -6.609375 37.765625 -6.9375 37.109375 -6.9375 C 36.160156 -6.9375 35.226562 -6.519531 34.3125 -5.6875 C 33.394531 -4.863281 32.28125 -3.898438 30.96875 -2.796875 C 29.664062 -1.703125 27.988281 -0.742188 25.9375 0.078125 C 23.894531 0.910156 21.269531 1.328125 18.0625 1.328125 C 15.21875 1.328125 12.59375 0.644531 10.1875 -0.71875 C 7.789062 -2.082031 5.863281 -3.90625 4.40625 -6.1875 C 2.945312 -8.46875 2.21875 -11.035156 2.21875 -13.890625 Z M 35.859375 -40.046875 C 33.960938 -40.046875 32.050781 -39.316406 30.125 -37.859375 C 28.195312 -36.410156 26.609375 -34.363281 25.359375 -31.71875 C 24.117188 -29.082031 23.5 -25.925781 23.5 -22.25 C 23.5 -20.175781 23.75 -18.203125 24.25 -16.328125 C 24.757812 -14.460938 25.617188 -12.9375 26.828125 -11.75 C 28.046875 -10.5625 29.753906 -9.96875 31.953125 -9.96875 C 34.378906 -9.96875 36.1875 -10.929688 37.375 -12.859375 C 38.5625 -14.785156 39.15625 -17.203125 39.15625 -20.109375 C 39.15625 -22.898438 39.140625 -25.316406 39.109375 -27.359375 C 39.085938 -29.410156 39.078125 -31.800781 39.078125 -34.53125 C 39.078125 -36.550781 38.835938 -37.972656 38.359375 -38.796875 C 37.878906 -39.628906 37.046875 -40.046875 35.859375 -40.046875 Z M 35.859375 -40.046875 "/></g></g></g><g fill="#000000" fill-opacity="1"><g transform="translate(609.32107, 437.251287)"><g><path d="M 7.5625 -44.5 C 6.5 -48.113281 5.445312 -51.566406 4.40625 -54.859375 C 3.363281 -58.160156 1.894531 -60.640625 0 -62.296875 L 31.15625 -62.296875 C 30.082031 -59.804688 29.8125 -57.0625 30.34375 -54.0625 C 30.882812 -51.070312 31.597656 -47.882812 32.484375 -44.5 C 33.316406 -41.414062 34.175781 -38.125 35.0625 -34.625 C 35.957031 -31.125 36.878906 -27.679688 37.828125 -24.296875 C 38.773438 -20.910156 39.738281 -17.820312 40.71875 -15.03125 C 41.695312 -12.25 42.644531 -10.023438 43.5625 -8.359375 C 44.476562 -6.703125 45.382812 -5.875 46.28125 -5.875 C 47.34375 -5.875 48.363281 -6.867188 49.34375 -8.859375 C 50.320312 -10.847656 51.125 -13.398438 51.75 -16.515625 C 52.375 -19.628906 52.6875 -22.847656 52.6875 -26.171875 C 52.6875 -30.734375 52.132812 -34.394531 51.03125 -37.15625 C 49.9375 -39.914062 48.585938 -42.066406 46.984375 -43.609375 C 45.390625 -45.148438 43.804688 -46.335938 42.234375 -47.171875 C 40.660156 -48.003906 39.320312 -48.71875 38.21875 -49.3125 C 37.125 -49.90625 36.578125 -50.644531 36.578125 -51.53125 C 36.578125 -52.957031 37.195312 -54.378906 38.4375 -55.796875 C 39.6875 -57.222656 41.347656 -58.53125 43.421875 -59.71875 C 45.503906 -60.90625 47.742188 -61.851562 50.140625 -62.5625 C 52.546875 -63.28125 54.910156 -63.640625 57.234375 -63.640625 C 59.597656 -63.640625 61.476562 -63.085938 62.875 -61.984375 C 64.269531 -60.890625 65.289062 -59.484375 65.9375 -57.765625 C 66.59375 -56.046875 66.921875 -54.207031 66.921875 -52.25 C 66.921875 -49.75 66.375 -46.453125 65.28125 -42.359375 C 64.1875 -38.265625 62.773438 -33.695312 61.046875 -28.65625 C 59.328125 -23.613281 57.488281 -18.390625 55.53125 -12.984375 C 53.570312 -7.585938 51.734375 -2.335938 50.015625 2.765625 C 48.585938 6.203125 47.191406 9.445312 45.828125 12.5 C 44.460938 15.5625 42.945312 18.265625 41.28125 20.609375 C 39.625 22.953125 37.671875 24.773438 35.421875 26.078125 C 33.171875 27.378906 30.410156 28.03125 27.140625 28.03125 C 25.359375 28.03125 23.488281 27.765625 21.53125 27.234375 C 19.570312 26.703125 17.910156 26.035156 16.546875 25.234375 C 15.179688 24.429688 14.5 23.613281 14.5 22.78125 C 14.5 21.832031 14.738281 20.660156 15.21875 19.265625 C 15.695312 17.867188 16.234375 16.28125 16.828125 14.5 C 17.535156 12.25 18.257812 10.1875 19 8.3125 C 19.738281 6.445312 20.554688 5.515625 21.453125 5.515625 C 22.398438 5.515625 23.40625 5.796875 24.46875 6.359375 C 25.539062 6.921875 26.816406 7.5 28.296875 8.09375 C 29.785156 8.6875 31.535156 8.984375 33.546875 8.984375 C 36.273438 8.984375 38.484375 8.523438 40.171875 7.609375 C 41.867188 6.691406 43.117188 5.664062 43.921875 4.53125 C 44.722656 3.40625 45.125 2.519531 45.125 1.875 C 45.125 1.039062 44.78125 0.519531 44.09375 0.3125 C 43.414062 0.101562 42.628906 0 41.734375 0 L 26.4375 0 C 24.59375 0 23.0625 -0.664062 21.84375 -2 C 20.632812 -3.332031 19.613281 -5.082031 18.78125 -7.25 C 17.945312 -9.414062 17.21875 -11.726562 16.59375 -14.1875 C 15.96875 -16.65625 15.332031 -18.988281 14.6875 -21.1875 C 13.914062 -24.03125 13.171875 -26.5625 12.453125 -28.78125 C 11.742188 -31.007812 11.003906 -33.335938 10.234375 -35.765625 C 9.460938 -38.203125 8.570312 -41.113281 7.5625 -44.5 Z M 7.5625 -44.5 "/></g></g></g><g fill="#000000" fill-opacity="1"><g transform="translate(678.467917, 437.251287)"><g><path d="M 2.21875 -13.890625 C 2.21875 -18.628906 3.164062 -22.789062 5.0625 -26.375 C 6.96875 -29.96875 9.535156 -33.054688 12.765625 -35.640625 C 16.003906 -38.222656 19.625 -40.34375 23.625 -42 C 27.632812 -43.664062 31.710938 -44.941406 35.859375 -45.828125 C 37.171875 -46.128906 38.035156 -46.664062 38.453125 -47.4375 C 38.867188 -48.207031 39.078125 -48.976562 39.078125 -49.75 C 39.078125 -51.050781 38.878906 -52.398438 38.484375 -53.796875 C 38.097656 -55.191406 37.359375 -56.378906 36.265625 -57.359375 C 35.171875 -58.335938 33.523438 -58.796875 31.328125 -58.734375 C 29.078125 -58.679688 27.03125 -58.03125 25.1875 -56.78125 C 23.34375 -55.53125 21.664062 -54 20.15625 -52.1875 C 18.644531 -50.382812 17.234375 -48.578125 15.921875 -46.765625 C 14.617188 -44.960938 13.390625 -43.453125 12.234375 -42.234375 C 11.078125 -41.015625 9.9375 -40.40625 8.8125 -40.40625 C 8.101562 -40.40625 7.460938 -40.6875 6.890625 -41.25 C 6.328125 -41.8125 6.046875 -42.476562 6.046875 -43.25 L 6.046875 -48.15625 C 6.046875 -49.695312 6.0625 -51.207031 6.09375 -52.6875 C 6.125 -54.164062 6.703125 -55.441406 7.828125 -56.515625 C 10.859375 -59.421875 14.582031 -61.332031 19 -62.25 C 23.414062 -63.175781 27.96875 -63.640625 32.65625 -63.640625 C 37.757812 -63.640625 42.207031 -62.851562 46 -61.28125 C 49.800781 -59.707031 52.929688 -57.628906 55.390625 -55.046875 C 57.859375 -52.460938 59.703125 -49.597656 60.921875 -46.453125 C 62.140625 -43.304688 62.75 -40.132812 62.75 -36.9375 L 62.75 -10.5 C 62.75 -7.945312 62.96875 -5.851562 63.40625 -4.21875 C 63.851562 -2.59375 64.671875 -1.1875 65.859375 0 L 44.0625 0 C 41.445312 0 39.898438 -1.273438 39.421875 -3.828125 C 39.304688 -4.597656 39.054688 -5.304688 38.671875 -5.953125 C 38.285156 -6.609375 37.765625 -6.9375 37.109375 -6.9375 C 36.160156 -6.9375 35.226562 -6.519531 34.3125 -5.6875 C 33.394531 -4.863281 32.28125 -3.898438 30.96875 -2.796875 C 29.664062 -1.703125 27.988281 -0.742188 25.9375 0.078125 C 23.894531 0.910156 21.269531 1.328125 18.0625 1.328125 C 15.21875 1.328125 12.59375 0.644531 10.1875 -0.71875 C 7.789062 -2.082031 5.863281 -3.90625 4.40625 -6.1875 C 2.945312 -8.46875 2.21875 -11.035156 2.21875 -13.890625 Z M 35.859375 -40.046875 C 33.960938 -40.046875 32.050781 -39.316406 30.125 -37.859375 C 28.195312 -36.410156 26.609375 -34.363281 25.359375 -31.71875 C 24.117188 -29.082031 23.5 -25.925781 23.5 -22.25 C 23.5 -20.175781 23.75 -18.203125 24.25 -16.328125 C 24.757812 -14.460938 25.617188 -12.9375 26.828125 -11.75 C 28.046875 -10.5625 29.753906 -9.96875 31.953125 -9.96875 C 34.378906 -9.96875 36.1875 -10.929688 37.375 -12.859375 C 38.5625 -14.785156 39.15625 -17.203125 39.15625 -20.109375 C 39.15625 -22.898438 39.140625 -25.316406 39.109375 -27.359375 C 39.085938 -29.410156 39.078125 -31.800781 39.078125 -34.53125 C 39.078125 -36.550781 38.835938 -37.972656 38.359375 -38.796875 C 37.878906 -39.628906 37.046875 -40.046875 35.859375 -40.046875 Z M 35.859375 -40.046875 "/></g></g></g></svg>